<?xml version="1.0" encoding="UTF-8" standalone="no"?>
<svg viewBox="0 0 513.80996 523.33433" version="1.1"
  xmlns="http://www.w3.org/2000/svg"
  xmlns:svg="http://www.w3.org/2000/svg">
  <g transform="matrix(0,8.911541,-8.9934127,0,608.26864,-76.345995)">
    <path d="m 9.517,41.944 c 0.003,-2.435 1.086,-4.743 2.956,-6.303 -0.383,-0.96 -0.58,-1.984 -0.583,-3.018 0,-3.71 2.483186,-6.916234 6.065186,-7.888234 C 17.695186,23.928766 17.57,23.045 17.568,22.199 c 0,-4.54 3.68,-8.22 8.22,-8.22 0.714,0.002 1.425,0.1 2.114,0.286 1.137,-1.753 3.084,-2.812 5.174,-2.812 3.408,0 6.17,2.762 6.17,6.17 -0.283,11.996 -0.18,25.47 -0.158,41.525 0,4.163 -3.375,7.537 -7.537,7.537 -3.3,0 -6.215,-2.148 -7.195,-5.3 -0.873,0.31 -1.793,0.47 -2.72,0.474 -4.54,0 -8.22,-3.68 -8.22,-8.22 0.004,-1.453 0.39,-2.878 1.124,-4.132 C 11.5,48.223 9.52,45.245 9.517,41.945 Z" fill="#c96f80" stroke="#000000" stroke-width="1.9" style="fill:#0693d5;fill-opacity:1;stroke-width:1.89982;stroke-miterlimit:4;stroke-dasharray:none" />
    <path d="m 26.404,36.006 c 0.387,-0.694 0.664,-1.445 0.82,-2.224 0.834,-4.164 -1.867,-8.168955 -6.03,-9.001955 -4.165,-0.832 -8.216,1.821955 -9.05,5.985955 -0.506,2.55 0.31,5.184 2.17,7 m -0.390667,13.218213 c -0.322,0.727 -0.436437,1.594622 -0.522437,2.384622 -0.453,4.222 2.633104,8.027165 6.856104,8.480165 4.222,0.452 8.012,-2.604 8.465,-6.826 0.275,-2.586 -0.775,-5.135 -2.792,-6.776" fill="none" stroke="#000000" stroke-width="1.777" />
    <path d="m 22.59162,14.631606 c -0.778,0.308 -1.47762,0.794394 -2.12462,1.325394 -3.446,2.837 -3.926,7.944 -1.07,11.405 2.856,3.46 7.966,3.967 11.413,1.13 2.11,-1.74 3.19,-4.432 2.874,-7.156" fill="none" stroke="#000000" stroke-width="1.873" />
    <circle r="6.9489999" cy="32.458" cx="19.746" fill="#c96f80" style="fill:#0693d5;fill-opacity:1" />
  </g>
  <g transform="translate(-28.176925,-8.2316555e-4)">
    <path style="fill:none;stroke:#000000;stroke-width:17.0079;stroke-linecap:butt;stroke-linejoin:miter;stroke-miterlimit:4;stroke-dasharray:none;stroke-opacity:1" d="m 200.33511,272.77376 v 93.11426 l -59.35139,59.35138" />
    <circle style="font-variation-settings:normal;opacity:1;vector-effect:none;fill:none;fill-opacity:1;stroke:#000000;stroke-width:17.0079;stroke-linecap:butt;stroke-linejoin:miter;stroke-miterlimit:4;stroke-dasharray:none;stroke-dashoffset:0;stroke-opacity:1;-inkscape-stroke:none;stop-color:#000000;stop-opacity:1" cx="127.55878" cy="440.19592" r="28.885059" />
  </g>
  <g transform="translate(-6.3118075,-8.2316555e-4)">
    <path style="fill:none;stroke:#000000;stroke-width:17.0079;stroke-linecap:butt;stroke-linejoin:miter;stroke-miterlimit:4;stroke-dasharray:none;stroke-opacity:1" d="M 256.90581,269.9356 V 465.33251" />
    <circle style="font-variation-settings:normal;opacity:1;vector-effect:none;fill:none;fill-opacity:1;stroke:#000000;stroke-width:17.0079;stroke-linecap:butt;stroke-linejoin:miter;stroke-miterlimit:4;stroke-dasharray:none;stroke-dashoffset:0;stroke-opacity:1;-inkscape-stroke:none;stop-color:#000000;stop-opacity:1" cx="257.50748" cy="485.94617" r="28.885059" />
  </g>
  <g transform="translate(16.75662,-8.2316555e-4)">
    <path style="fill:none;stroke:#000000;stroke-width:17.0079;stroke-linecap:butt;stroke-linejoin:miter;stroke-miterlimit:4;stroke-dasharray:none;stroke-opacity:1" d="m 313.47654,272.77376 v 93.11426 l 59.35139,59.35138" />
    <circle style="font-variation-settings:normal;opacity:1;vector-effect:none;fill:none;fill-opacity:1;stroke:#000000;stroke-width:17.0079;stroke-linecap:butt;stroke-linejoin:miter;stroke-miterlimit:4;stroke-dasharray:none;stroke-dashoffset:0;stroke-opacity:1;-inkscape-stroke:none;stop-color:#000000;stop-opacity:1" cx="391.36224" cy="446.23611" r="28.885059" />
  </g>
</svg>
